/* XPM */
static char *close_inactive[] = {
/* columns rows colors chars-per-pixel */
"34 26 23 1 ",
"  c #93C3A0",
". c #93C4A0",
"X c #94C4A0",
"o c #94C5A0",
"O c #94C4A1",
"+ c #94C5A1",
"@ c #95C5A1",
"# c #96C6A2",
"$ c #97C6A3",
"% c #97C7A3",
"& c #98C6A4",
"* c #99C6A5",
"= c #99C7A5",
"- c #9AC7A6",
"; c #9AC8A6",
": c #9BC8A6",
"> c #9CC8A7",
", c #B4D6BD",
"< c #B5D6BE",
"1 c #B6D8BF",
"2 c #CCE3D2",
"3 c #CDE4D3",
"4 c #DDECE1",
/* pixels */
"............o#=-;;-=#X............",
"..........+&::::::::::=+..........",
".........&::::::::::::::&.........",
"....... &::::::::::::::::= .......",
".......=::::::::::::::::::=.......",
"......&::::::::::::::::::::$......",
".....O::::::::::::::::::::::+.....",
".....=::::::::::::::::::::::=.....",
"....X::::::::>::::::>::::::::X....",
"....#:::::::>3<::::<3>:::::::%....",
"....=::::::::,41::,41::::::::=....",
"....;:::::::::,41,41:::::::::-....",
"....;::::::::::<44<::::::::::;....",
"....;::::::::::<44<::::::::::;....",
"....;:::::::::,41,41:::::::::-....",
"....=::::::::,41::,41::::::::=....",
"....#:::::::>2<::::<3>:::::::$....",
"....X::::::::>::::::>::::::::X....",
".....=::::::::::::::::::::::=.....",
".....O::::::::::::::::::::::+.....",
"......&::::::::::::::::::::$......",
".......*::::::::::::::::::=.......",
"....... =::::::::::::::::= .......",
".........&::::::::::::::$.........",
"..........@&::::::::::=O..........",
"............X%=-;;==$X............"
};
