/* XPM */
static char *close_pressed[] = {
/* columns rows colors chars-per-pixel */
"34 26 23 1 ",
"  c #35924E",
". c #36924F",
"X c #399450",
"o c #3C9654",
"O c #3D9755",
"+ c #3E9756",
"@ c #3F9756",
"# c #4B9E61",
"$ c #4D9E62",
"% c #50A066",
"& c #50A166",
"* c #57A56B",
"= c #58A56C",
"- c #59A56D",
"; c #5DA871",
": c #62AA76",
"> c #64AC77",
", c #65AD78",
"< c #A0CCAB",
"1 c #A0CCAC",
"2 c #A4CEAF",
"3 c #D6E9DB",
"4 c #FDFEFD",
/* pixels */
"            O$=;::;=$O            ",
"          @->>>>>>>>>>=@          ",
"        .&>>>>>>>>>>>>>>&.        ",
"       X->>>>>>>>>>>>>>>>=X       ",
"      .=>>>>>>>>>>>>>>>>>>=.      ",
"      &>>>>>>>>>>>>>>>>>>>>%      ",
"     +>>>>>>>>>>>>>>>>>>>>>>@     ",
"     =>>>>>>>>>>>>>>>>>>>>>>=     ",
"    O>>>>>>>>,>>>>>>,>>>>>>>>O    ",
"    $>>>>>>>,31>>>>13,>>>>>>>#    ",
"    =>>>>>>>><42>><42>>>>>>>>=    ",
"    ;>>>>>>>>><42<42>>>>>>>>>;    ",
"    :>>>>>>>>>>1441>>>>>>>>>>:    ",
"    :>>>>>>>>>>1441>>>>>>>>>>:    ",
"    ;>>>>>>>>><42<42>>>>>>>>>;    ",
"    =>>>>>>>><42>><42>>>>>>>>=    ",
"    $>>>>>>>,31>>>>13,>>>>>>>#    ",
"    o>>>>>>>>,>>>>>>,>>>>>>>>O    ",
"     =>>>>>>>>>>>>>>>>>>>>>>=     ",
"     +>>>>>>>>>>>>>>>>>>>>>>+     ",
"      &>>>>>>>>>>>>>>>>>>>>%      ",
"       *>>>>>>>>>>>>>>>>>>=.      ",
"       X=>>>>>>>>>>>>>>>>=X       ",
"        .&>>>>>>>>>>>>>>%.        ",
"          O*>>>>>>>>>>=+          ",
"            O#=;::;=#o            "
};
