/* XPM */
static char *maximize_inactive[] = {
/* columns rows colors chars-per-pixel */
"34 26 17 1 ",
"  c #93C3A0",
". c #93C4A0",
"X c #94C4A0",
"o c #94C5A0",
"O c #94C4A1",
"+ c #94C5A1",
"@ c #95C5A1",
"# c #96C6A2",
"$ c #97C6A3",
"% c #97C7A3",
"& c #98C6A4",
"* c #99C6A5",
"= c #99C7A5",
"- c #9AC7A6",
"; c #9AC8A6",
": c #9BC8A6",
"> c #DEEDE2",
/* pixels */
"............o#=-;;-=#X............",
"..........+&::::::::::=+..........",
".........&::::::::::::::&.........",
"....... &::::::::::::::::= .......",
".......=::::::::::::::::::=.......",
"......&::::::::::::::::::::$......",
".....O::::::::::::::::::::::+.....",
".....=::::::::::::::::::::::=.....",
"....X::::::::::::::::::::::::X....",
"....#::::::::>>>>>>>>::::::::%....",
"....=::::::::>::::::>::::::::=....",
"....;::::::::>::::::>::::::::-....",
"....;::::::::>::::::>::::::::;....",
"....;::::::::>::::::>::::::::;....",
"....;::::::::>::::::>::::::::-....",
"....=::::::::>::::::>::::::::=....",
"....#::::::::>>>>>>>>::::::::$....",
"....X::::::::::::::::::::::::X....",
".....=::::::::::::::::::::::=.....",
".....O::::::::::::::::::::::+.....",
"......&::::::::::::::::::::$......",
".......*::::::::::::::::::=.......",
"....... =::::::::::::::::= .......",
".........&::::::::::::::$.........",
"..........@&::::::::::=O..........",
"............X%=-;;==$X............"
};
