/* XPM */
static char *top_right_inactive[] = {
/* columns rows colors chars-per-pixel */
"8 38 5 1 ",
"  c None",
". c #92C4A0",
"X c #93C4A0",
"o c #93C4A1",
"O c #94C4A0",
/* pixels */
"XX.     ",
"XXXXo   ",
"XXXXXX  ",
"XXXXXXo ",
"XXXXXXX ",
"XXXXXXXX",
"XXXXXXXX",
"XXXXXXXO",
"XXXXXXXX",
"XXXXXXXX",
"XXXXXXXX",
"XXXXXXXX",
"XXXXXXXX",
"XXXXXXXX",
"XXXXXXXX",
"XXXXXXXX",
"XXXXXXXX",
"XXXXXXXX",
"XXXXXXXX",
"XXXXXXXX",
"XXXXXXXX",
"XXXXXXXX",
"XXXXXXXX",
"XXXXXXXX",
"XXXXXXXX",
"XXXXXXXX",
"XXXXXXXX",
"XXXXXXXX",
"XXXXXXXX",
"XXXXXXXX",
"XXXXXXXX",
"XXXXXXXX",
"XXXXXXXX",
"XXXXXXXX",
"XXXXXXXX",
"XXXXXXXX",
"XXXXXXXX",
"XXXXXXXX"
};
