/* XPM */
static char *close_pressed[] = {
/* columns rows colors chars-per-pixel */
"34 26 27 1 ",
"  c #174424",
". c #42674D",
"X c #43684E",
"o c #7C9683",
"O c #7F9987",
"+ c #809988",
"@ c #C1CEC5",
"# c #C3CFC7",
"$ c #C6D1CA",
"% c #C6D2CA",
"& c #CCD6CE",
"* c #CCD7CE",
"= c #D0D9D3",
"- c #D0DAD3",
"; c #D1DBD4",
": c #D9E1DC",
"> c #DAE2DC",
", c #DDE6DF",
"< c #DFE8E1",
"1 c #ECF1EE",
"2 c #EDF2EF",
"3 c #EEF3F0",
"4 c #EEF4F0",
"5 c #EFF4F1",
"6 c #F4F8F5",
"7 c #F7FAF8",
"8 c #F8FBF9",
/* pixels */
"8888888888884,-&%%&-,3888888888888",
"88888888881=##########-18888888888",
"888888887:##############:788888888",
"88888886=################-68888888",
"8888887-##################-7888888",
"888888:####################>888888",
"888882######################188888",
"88888-######################-88888",
"88883########@######@########38888",
"8888,#######@.O####O.@#######<8888",
"8888-########+ o##+ o########-8888",
"8888*#########+ o+ o#########&8888",
"8888%##########O  O##########%8888",
"8888$##########O  O##########$8888",
"8888*#########+ o+ o#########&8888",
"8888-########+ o##+ o########-8888",
"8888,#######@XO####O.@#######<8888",
"88885########@######@########38888",
"88888-######################-88888",
"888882######################288888",
"888888:####################>888888",
"8888888;##################-7888888",
"88888886-################-68888888",
"888888887:##############>788888888",
"88888888885;##########-28888888888",
"8888888888883<-&%%&-<5888888888888"
};
