/* XPM */
static char *hide_pressed[] = {
/* columns rows colors chars-per-pixel */
"34 26 21 1 ",
"  c #154322",
". c #C3CFC7",
"X c #C6D1CA",
"o c #C6D2CA",
"O c #CCD6CE",
"+ c #CCD7CE",
"@ c #D0D9D3",
"# c #D0DAD3",
"$ c #D1DBD4",
"% c #D9E1DC",
"& c #DAE2DC",
"* c #DDE6DF",
"= c #DFE8E1",
"- c #ECF1EE",
"; c #EDF2EF",
": c #EEF3F0",
"> c #EEF4F0",
", c #EFF4F1",
"< c #F4F8F5",
"1 c #F7FAF8",
"2 c #F8FBF9",
/* pixels */
"222222222222>*#OooO#*:222222222222",
"2222222222-@..........#-2222222222",
"222222221%..............%122222222",
"2222222<@................#<2222222",
"2222221#..................#1222222",
"222222%....................&222222",
"22222;......................-22222",
"22222#......................#22222",
"2222:........................:2222",
"2222*........................=2222",
"2222#........................#2222",
"2222+........................O2222",
"2222o........................o2222",
"2222X........................X2222",
"2222+........................O2222",
"2222#........        ........#2222",
"2222*........................=2222",
"2222,........................:2222",
"22222#......................#22222",
"22222;......................;22222",
"222222%....................&222222",
"2222222$..................#1222222",
"2222222<#................#<2222222",
"222222221%..............&122222222",
"2222222222,$..........#;2222222222",
"222222222222:=#OooO#=,222222222222"
};
