/* XPM */
static char *top_right_active[] = {
/* columns rows colors chars-per-pixel */
"8 38 4 1 ",
"  c None",
". c #F8FBF9",
"X c #F8FBFA",
"o c #F8FCFA",
/* pixels */
"..X     ",
"....o   ",
".....X  ",
"......o ",
"....... ",
".......X",
"........",
"........",
"........",
"........",
"........",
"........",
"........",
"........",
"........",
"........",
"........",
"........",
"........",
"........",
"........",
"........",
"........",
"........",
"........",
"........",
"........",
"........",
"........",
"........",
"........",
"........",
"........",
"........",
"........",
"........",
"........",
"........"
};
