/* XPM */
static char *top_right_inactive[] = {
/* columns rows colors chars-per-pixel */
"8 38 6 1 ",
"  c None",
". c #F1F5F1",
"X c #F1F6F2",
"o c #F0F7F2",
"O c #F1F7F2",
"+ c #F1F6F3",
/* pixels */
"XO+     ",
"XXXX+   ",
"XXXXX.  ",
"XXXXXX+ ",
"XXXXXXX ",
"XXXXXXXX",
"XXXXXXXo",
"XXXXXXXX",
"XXXXXXXX",
"XXXXXXXX",
"XXXXXXXX",
"XXXXXXXX",
"XXXXXXXX",
"XXXXXXXX",
"XXXXXXXX",
"XXXXXXXX",
"XXXXXXXX",
"XXXXXXXX",
"XXXXXXXX",
"XXXXXXXX",
"XXXXXXXX",
"XXXXXXXX",
"XXXXXXXX",
"XXXXXXXX",
"XXXXXXXX",
"XXXXXXXX",
"XXXXXXXX",
"XXXXXXXX",
"XXXXXXXX",
"XXXXXXXX",
"XXXXXXXX",
"XXXXXXXX",
"XXXXXXXX",
"XXXXXXXX",
"XXXXXXXX",
"XXXXXXXX",
"XXXXXXXX",
"XXXXXXXX"
};
