/* XPM */
static char *close_active[] = {
/* columns rows colors chars-per-pixel */
"34 26 27 1 ",
"  c #343735",
". c #353836",
"X c #363937",
"o c #363A37",
"O c #373A38",
"+ c #373B38",
"@ c #3B3F3D",
"# c #3C3F3D",
"$ c #3C403D",
"% c #3D413E",
"& c #3D413F",
"* c #3F4340",
"= c #3F4341",
"- c #3F4441",
"; c #404441",
": c #424543",
"> c #424544",
", c #424644",
"< c #434845",
"1 c #444946",
"2 c #454A47",
"3 c #7D8880",
"4 c #7D8981",
"5 c #818D84",
"6 c #B0C2B5",
"7 c #B1C2B5",
"8 c #D5ECDB",
/* pixels */
"            o#-><<>-#X            ",
"          +;1111111111-+          ",
"         &11111111111111&         ",
"       .;1111111111111111-.       ",
"       -111111111111111111-       ",
"      &11111111111111111111%      ",
"     O1111111111111111111111+     ",
"     -1111111111111111111111-     ",
"    X111111112111111211111111X    ",
"    #111111127411114721111111$    ",
"    -111111113851138511111111-    ",
"    ,111111111385385111111111>    ",
"    <111111111148841111111111<    ",
"    <111111111148841111111111<    ",
"    ,111111111385385111111111>    ",
"    -111111113851138511111111-    ",
"    #111111126411114721111111@    ",
"    X111111112111111211111111X    ",
"     -1111111111111111111111-     ",
"     O1111111111111111111111+     ",
"      &11111111111111111111%      ",
"       =111111111111111111-       ",
"       .-1111111111111111-.       ",
"         &11111111111111%         ",
"          O*1111111111-O          ",
"            X$-><<:-#X            "
};
