/* XPM */
static char *hide_inactive[] = {
/* columns rows colors chars-per-pixel */
"34 26 15 1 ",
"  c #2A2D2B",
". c #2B2E2C",
"X c #2B2F2C",
"o c #2C2F2D",
"O c #2C302D",
"+ c #2F3330",
"@ c #303331",
"# c #313532",
"$ c #323733",
"% c #333734",
"& c #343834",
"* c #353835",
"= c #353A36",
"- c #363B37",
"; c #A3B4A7",
/* pixels */
"            X+%&==&%+X            ",
"          O%----------%O          ",
"         #--------------#         ",
"       .%----------------%.       ",
"       %------------------%       ",
"      #--------------------#      ",
"     o----------------------O     ",
"     %----------------------%     ",
"    X------------------------X    ",
"    @------------------------+    ",
"    %------------------------%    ",
"    *------------------------*    ",
"    =------------------------=    ",
"    =------------------------=    ",
"    *------------------------&    ",
"    %--------;;;;;;;;--------%    ",
"    +------------------------+    ",
"    X------------------------X    ",
"     %----------------------%     ",
"     o----------------------O     ",
"      #--------------------#      ",
"       $------------------%       ",
"       .%----------------%.       ",
"         #--------------#         ",
"          o$----------%o          ",
"            X+%&==&%+X            "
};
