/* XPM */
static char *hide_prelight[] = {
/* columns rows colors chars-per-pixel */
"34 26 22 1 ",
"  c #343735",
". c #363937",
"X c #383B39",
"o c #383D39",
"O c #3A3D3B",
"+ c #3A3F3B",
"@ c #414644",
"# c #434644",
"$ c #434744",
"% c #434844",
"& c #464A47",
"* c #464A49",
"= c #4A4E4A",
"- c #4A4E4C",
"; c #4A504C",
": c #4B504C",
"> c #4F524F",
", c #4F5251",
"< c #4F5451",
"1 c #515754",
"2 c #525955",
"3 c #D7EEDD",
/* pixels */
"            o$;,11,;$X            ",
"          +:2222222222;+          ",
"         *22222222222222*         ",
"       .:2222222222222222;.       ",
"       ;222222222222222222;       ",
"      *22222222222222222222&      ",
"     O2222222222222222222222+     ",
"     ;2222222222222222222222;     ",
"    X222222222222222222222222X    ",
"    $222222222222222222222222%    ",
"    ;222222222222222222222222;    ",
"    <222222222222222222222222,    ",
"    12222222222222222222222221    ",
"    12222222222222222222222221    ",
"    <222222222222222222222222,    ",
"    ;222222223333333322222222;    ",
"    $222222222222222222222222@    ",
"    X222222222222222222222222X    ",
"     ;2222222222222222222222;     ",
"     O2222222222222222222222+     ",
"      *22222222222222222222&      ",
"       -222222222222222222;       ",
"       .;2222222222222222;.       ",
"         *22222222222222&         ",
"          O=2222222222;O          ",
"            X%;,11>;#X            "
};
