/* XPM */
static char *maximize_pressed[] = {
/* columns rows colors chars-per-pixel */
"34 26 30 1 ",
"  c #343735",
". c #353836",
"X c #373A38",
"o c #3A3D3B",
"O c #3A3F3B",
"+ c #3B3F3C",
"@ c #3B3F3D",
"# c #3B403C",
"$ c #3B403D",
"% c #3C403D",
"& c #454B48",
"* c #474B48",
"= c #474C48",
"- c #474D48",
"; c #474C49",
": c #4A4F4D",
"> c #4A504B",
", c #4A504C",
"< c #4A504D",
"1 c #4E5550",
"2 c #4F5652",
"3 c #4F5752",
"4 c #505852",
"5 c #515852",
"6 c #555A57",
"7 c #555C57",
"8 c #58605A",
"9 c #59605B",
"0 c #5A625D",
"q c #D7EEDD",
/* pixels */
"            O=469963=o            ",
"          %500000000004$          ",
"        .<00000000000000:.        ",
"       X500000000000000003X       ",
"      .40000000000000000003.      ",
"      <00000000000000000000,      ",
"     +0000000000000000000000$     ",
"     400000000000000000000003     ",
"    o000000000000000000000000o    ",
"    ;00000000qqqqqqqq00000000-    ",
"    300000000q000000q000000003    ",
"    700000000q000000q000000006    ",
"    800000000q000000q000000008    ",
"    800000000q000000q000000008    ",
"    700000000q000000q000000006    ",
"    300000000q000000q000000003    ",
"    =00000000qqqqqqqq00000000&    ",
"    o000000000000000000000000o    ",
"     300000000000000000000003     ",
"     +0000000000000000000000#     ",
"      :00000000000000000000>      ",
"       20000000000000000003.      ",
"       X300000000000000003X       ",
"        .:00000000000000>.        ",
"          @100000000003+          ",
"            o-368863*o            "
};
